<svg width="24" height="24" viewBox="0 0 24 24" fill="none" xmlns="http://www.w3.org/2000/svg">
<g clip-path="url(#clip0_16_1552)">
<path d="M16.7867 8.21332L12.8467 12.0867C12.4217 11.8819 11.938 11.834 11.4811 11.9514C11.0241 12.0688 10.6234 12.344 10.3497 12.7282C10.0761 13.1125 9.947 13.5811 9.9854 14.0513C10.0238 14.5215 10.2272 14.963 10.5596 15.2977C10.892 15.6325 11.332 15.839 11.8019 15.8807C12.2718 15.9224 12.7413 15.7966 13.1275 15.5257C13.5137 15.2547 13.7917 14.856 13.9123 14.3999C14.0329 13.9438 13.9884 13.4598 13.7867 13.0333L17.7334 9.15998L16.7867 8.21332Z" fill="#121417"/>
<path d="M12.0001 2.83332C9.90189 2.83092 7.84683 3.42901 6.07762 4.55697C4.30841 5.68493 2.89894 7.29563 2.01568 9.19885C1.13241 11.1021 0.812254 13.2183 1.09301 15.2976C1.37376 17.3769 2.24369 19.3325 3.60008 20.9333L3.80008 21.1667H20.2001L20.4001 20.9333C21.7565 19.3325 22.6264 17.3769 22.9071 15.2976C23.1879 13.2183 22.8677 11.1021 21.9845 9.19885C21.1012 7.29563 19.6917 5.68493 17.9225 4.55697C16.1533 3.42901 14.0983 2.83092 12.0001 2.83332ZM19.5601 19.8333H4.44008C3.24386 18.3365 2.5219 16.5165 2.36674 14.6067H4.66674V13.2733H2.36674C2.47789 11.1564 3.28661 9.13573 4.66674 7.52665L6.30008 9.15999L7.24008 8.21999L5.62008 6.57999C7.20865 5.17525 9.21764 4.33602 11.3334 4.19332V6.52665H12.6667V4.19999C15.0037 4.36947 17.1991 5.38373 18.843 7.0534C20.4869 8.72307 21.467 10.934 21.6001 13.2733H19.2801V14.6067H21.6334C21.4782 16.5165 20.7563 18.3365 19.5601 19.8333Z" fill="#121417"/>
</g>
<defs>
<clipPath id="clip0_16_1552">
<rect width="24" height="24" fill="white"/>
</clipPath>
</defs>
</svg>
