<svg width="24" height="24" viewBox="0 0 24 24" fill="none" xmlns="http://www.w3.org/2000/svg">
<g clip-path="url(#clip0_7_190)">
<path d="M12 2.83332C9.90183 2.83092 7.84677 3.42901 6.07756 4.55697C4.30835 5.68493 2.89888 7.29563 2.01562 9.19885C1.13235 11.1021 0.812192 13.2183 1.09294 15.2976C1.3737 17.3769 2.24363 19.3325 3.60001 20.9333L3.80001 21.1667H20.2L20.4 20.9333C21.7564 19.3325 22.6263 17.3769 22.9071 15.2976C23.1878 13.2183 22.8677 11.1021 21.9844 9.19885C21.1012 7.29563 19.6917 5.68493 17.9225 4.55697C16.1533 3.42901 14.0982 2.83092 12 2.83332ZM17.7333 9.15332L13.7867 13.0267C13.9884 13.4531 14.0329 13.9371 13.9123 14.3932C13.7916 14.8493 13.5137 15.2481 13.1275 15.519C12.7413 15.79 12.2718 15.9157 11.8019 15.874C11.332 15.8323 10.8919 15.6258 10.5595 15.291C10.2271 14.9563 10.0238 14.5148 9.98537 14.0446C9.94698 13.5744 10.076 13.1058 10.3497 12.7215C10.6234 12.3373 11.0241 12.0622 11.481 11.9448C11.938 11.8274 12.4217 11.8753 12.8467 12.08L16.7867 8.20665L17.7333 9.15332ZM2.40001 13.2667H4.66668V14.6H2.37335C2.37335 14.34 2.34001 14.0867 2.34001 13.82C2.34001 13.5533 2.35335 13.4533 2.36668 13.2667H2.40001ZM5.65335 6.59999L7.29335 8.23999L6.31335 9.15999L4.66668 7.52665C4.96288 7.19008 5.28137 6.87381 5.62001 6.57999L5.65335 6.59999ZM12.6667 6.52665H11.3333V4.19332H12C12.2467 4.19332 12.4667 4.19332 12.6667 4.22665V6.52665ZM21.66 13.8267C21.66 14.0867 21.66 14.3533 21.6267 14.6067H19.28V13.2733H21.6333C21.6467 13.4533 21.66 13.64 21.66 13.8267Z" fill="#1D3557"/>
</g>
<defs>
<clipPath id="clip0_7_190">
<rect width="24" height="24" fill="white"/>
</clipPath>
</defs>
</svg>
