<svg width="20" height="20" viewBox="0 0 20 20" fill="none" xmlns="http://www.w3.org/2000/svg">
<path d="M10 1.66669V7.50002L11.6667 5.83335" stroke="#121417" stroke-linecap="round" stroke-linejoin="round"/>
<path d="M10 7.49998L8.33337 5.83331" stroke="#121417" stroke-linecap="round" stroke-linejoin="round"/>
<path d="M1.65002 10.8333H5.32502C5.64169 10.8333 5.92502 11.0083 6.06669 11.2916L7.04169 13.2416C7.32502 13.8083 7.90002 14.1666 8.53336 14.1666H11.475C12.1084 14.1666 12.6834 13.8083 12.9667 13.2416L13.9417 11.2916C14.0834 11.0083 14.375 10.8333 14.6834 10.8333H18.3167" stroke="#121417" stroke-linecap="round" stroke-linejoin="round"/>
<path d="M5.83329 3.44165C2.88329 3.87498 1.66663 5.60832 1.66663 9.16665V12.5C1.66663 16.6666 3.33329 18.3333 7.49996 18.3333H12.5C16.6666 18.3333 18.3333 16.6666 18.3333 12.5V9.16665C18.3333 5.60832 17.1166 3.87498 14.1666 3.44165" stroke="#121417" stroke-linecap="round" stroke-linejoin="round"/>
</svg>
