<svg width="25" height="24" viewBox="0 0 25 24" fill="none" xmlns="http://www.w3.org/2000/svg">
<path d="M9.16992 22H15.1699C20.1699 22 22.1699 20 22.1699 15V9C22.1699 4 20.1699 2 15.1699 2H9.16992C4.16992 2 2.16992 4 2.16992 9V15C2.16992 20 4.16992 22 9.16992 22Z" stroke="#121417" stroke-linecap="round" stroke-linejoin="round"/>
<path d="M2.16992 12.7L8.16992 12.68C8.91992 12.68 9.75992 13.25 10.0399 13.95L11.1799 16.83C11.4399 17.48 11.8499 17.48 12.1099 16.83L14.3999 11.02C14.6199 10.46 15.0299 10.44 15.3099 10.97L16.3499 12.94C16.6599 13.53 17.4599 14.01 18.1199 14.01H22.1799" stroke="#121417" stroke-linecap="round" stroke-linejoin="round"/>
</svg>
