<svg width="20" height="20" viewBox="0 0 20 20" fill="none" xmlns="http://www.w3.org/2000/svg">
<path d="M8.75002 16.5834V3.41675C8.75002 2.16675 8.21669 1.66675 6.89169 1.66675H3.52502C2.20002 1.66675 1.66669 2.16675 1.66669 3.41675V16.5834C1.66669 17.8334 2.20002 18.3334 3.52502 18.3334H6.89169C8.21669 18.3334 8.75002 17.8334 8.75002 16.5834Z" stroke="#121417" stroke-linecap="round" stroke-linejoin="round"/>
<path d="M18.3333 16.5834V3.41675C18.3333 2.16675 17.8 1.66675 16.475 1.66675H13.1083C11.7833 1.66675 11.25 2.16675 11.25 3.41675V16.5834C11.25 17.8334 11.7833 18.3334 13.1083 18.3334H16.475C17.8 18.3334 18.3333 17.8334 18.3333 16.5834Z" stroke="#121417" stroke-linecap="round" stroke-linejoin="round"/>
</svg>
